<svg width="15" height="24" viewBox="0 0 15 24" fill="none" xmlns="http://www.w3.org/2000/svg">
<path fill-rule="evenodd" clip-rule="evenodd" d="M5.73925 1.83343C6.91318 0.659506 8.50536 0 10.1655 0H13.3848C13.8787 0 14.2791 0.400368 14.2791 0.894248V5.18664C14.2791 5.68052 13.8787 6.08088 13.3848 6.08088H10.1655C10.1181 6.08088 10.0726 6.09973 10.0391 6.13327C10.0055 6.16681 9.9867 6.2123 9.9867 6.25973V8.58478H13.3848C13.6602 8.58478 13.9202 8.71165 14.0897 8.92869C14.2592 9.14574 14.3192 9.42876 14.2524 9.69591L13.1793 13.9883C13.0798 14.3864 12.7221 14.6657 12.3117 14.6657H9.9867V22.3562C9.9867 22.8501 9.58633 23.2504 9.09245 23.2504H4.80006C4.30618 23.2504 3.90582 22.8501 3.90582 22.3562V14.6657H1.58077C1.08689 14.6657 0.686523 14.2653 0.686523 13.7714V9.47902C0.686523 8.98515 1.08689 8.58478 1.58077 8.58478H3.90582V6.25973C3.90582 4.59955 4.56532 3.00736 5.73925 1.83343ZM10.1655 1.7885C8.9797 1.7885 7.84243 2.25957 7.00391 3.09809C6.16539 3.93661 5.69431 5.07389 5.69431 6.25973V9.47902C5.69431 9.9729 5.29394 10.3733 4.80006 10.3733H2.47502V12.8772H4.80006C5.29394 12.8772 5.69431 13.2775 5.69431 13.7714V21.4619H8.1982V13.7714C8.1982 13.2775 8.59857 12.8772 9.09245 12.8772H11.6135L12.2395 10.3733H9.09245C8.59857 10.3733 8.1982 9.9729 8.1982 9.47902V6.25973C8.1982 5.73796 8.40548 5.23756 8.77443 4.86861C9.14338 4.49966 9.64378 4.29239 10.1655 4.29239H12.4906V1.7885H10.1655Z" fill="black"/>
</svg>
