<svg width="23" height="23" viewBox="0 0 23 23" fill="none" xmlns="http://www.w3.org/2000/svg">
<path d="M16.5113 5.31489C16.5113 4.65638 17.0451 4.12256 17.7036 4.12256C18.3621 4.12256 18.8959 4.65638 18.8959 5.31489C18.8959 5.9734 18.3621 6.50722 17.7036 6.50722C17.0451 6.50722 16.5113 5.9734 16.5113 5.31489Z" fill="black"/>
<path fill-rule="evenodd" clip-rule="evenodd" d="M11.742 5.61297C8.61406 5.61297 6.07839 8.14864 6.07839 11.2765C6.07839 14.4044 8.61406 16.9401 11.742 16.9401C14.8699 16.9401 17.4055 14.4044 17.4055 11.2765C17.4055 8.14864 14.8699 5.61297 11.742 5.61297ZM7.86689 11.2765C7.86689 9.1364 9.60182 7.40147 11.742 7.40147C13.8821 7.40147 15.617 9.1364 15.617 11.2765C15.617 13.4167 13.8821 15.1516 11.742 15.1516C9.60182 15.1516 7.86689 13.4167 7.86689 11.2765Z" fill="black"/>
<path fill-rule="evenodd" clip-rule="evenodd" d="M18.0115 0.346468C13.8782 -0.115489 9.60572 -0.115489 5.47241 0.346468C3.07338 0.614596 1.13664 2.50445 0.854586 4.91597C0.36032 9.14195 0.36032 13.4111 0.854586 17.6371C1.13664 20.0486 3.07338 21.9385 5.47241 22.2066C9.60572 22.6686 13.8782 22.6686 18.0115 22.2066C20.4106 21.9385 22.3473 20.0486 22.6294 17.6371C23.1236 13.4111 23.1236 9.14195 22.6294 4.91597C22.3473 2.50445 20.4106 0.614596 18.0115 0.346468ZM5.67107 2.1239C9.67235 1.6767 13.8116 1.6767 17.8129 2.1239C19.3988 2.30115 20.6692 3.55263 20.853 5.12374C21.3311 9.21167 21.3311 13.3414 20.853 17.4293C20.6692 19.0004 19.3988 20.2519 17.8129 20.4292C13.8116 20.8764 9.67235 20.8764 5.67107 20.4292C4.08514 20.2519 2.81473 19.0004 2.63097 17.4293C2.15285 13.3414 2.15285 9.21168 2.63097 5.12374C2.81473 3.55263 4.08514 2.30115 5.67107 2.1239Z" fill="black"/>
</svg>
