<svg width="26" height="22" viewBox="0 0 26 22" fill="none" xmlns="http://www.w3.org/2000/svg">
<path fill-rule="evenodd" clip-rule="evenodd" d="M16.4202 0.672935C17.0264 0.569104 17.7052 0.534436 18.344 0.642512C19.4849 0.835529 20.5387 1.36579 21.3717 2.16079C21.9163 2.1731 22.4514 2.06583 22.9249 1.9129C23.3257 1.78347 23.6642 1.62719 23.9014 1.50362C24.0194 1.44218 24.1105 1.38976 24.1697 1.35428C24.1993 1.33657 24.2208 1.32316 24.2336 1.31506L24.2449 1.30783C24.5988 1.07208 25.07 1.11796 25.3715 1.41784C25.6731 1.71779 25.7217 2.18866 25.4877 2.54386C25.24 2.9198 24.8962 3.58997 24.511 4.34085C24.4505 4.45892 24.3889 4.57898 24.3265 4.7002C24.1056 5.12939 23.879 5.56318 23.6679 5.93535C23.5353 6.16903 23.3935 6.40627 23.2505 6.61128V6.93772C23.2596 8.13675 23.1221 9.32954 22.843 10.4899C22.6674 11.2201 22.4357 11.9374 22.1493 12.6353C21.4072 14.4437 20.3121 16.086 18.9282 17.4665C17.5442 18.8469 15.899 19.9377 14.0888 20.6752C12.2801 21.412 10.3429 21.7814 8.39002 21.7618C5.55905 21.7643 2.78764 20.9487 0.409274 19.413C0.0589657 19.1868 -0.0885243 18.7486 0.0537641 18.3566C0.196053 17.9647 0.590348 17.7231 1.00417 17.7743C1.3623 17.8186 1.72287 17.8403 2.08374 17.8391C3.38034 17.8354 4.65224 17.5489 5.8134 17.0092C5.44432 16.8412 5.09195 16.6341 4.76268 16.3899C3.79484 15.6722 3.07478 14.6707 2.7027 13.5248C2.606 13.227 2.67211 12.9003 2.87696 12.6635C2.88063 12.6593 2.88434 12.6551 2.88808 12.6509C2.66925 12.4558 2.46449 12.2433 2.27599 12.0148C1.42787 10.9868 0.960859 9.69737 0.953966 8.36466L0.953942 8.36004L0.953954 8.30042C0.953954 7.98342 1.12178 7.69011 1.39506 7.52948C1.46434 7.48876 1.53777 7.45811 1.6133 7.43756C1.2099 6.63264 1.00011 5.74382 1.00165 4.84211C1.00117 3.82056 1.26801 2.81666 1.77566 1.93016C1.92221 1.67424 2.18551 1.50703 2.47945 1.48321C2.7734 1.45939 3.06018 1.58203 3.24602 1.81101C4.39371 3.22513 5.82604 4.382 7.44998 5.20646C8.28477 5.63028 9.1606 5.96138 10.0618 6.1956C10.567 6.32691 11.0802 6.42776 11.5986 6.49743C11.5757 5.63507 11.746 4.77316 12.1034 3.97677C12.6277 2.80849 13.5248 1.84727 14.6543 1.24384C15.1326 0.988285 15.7675 0.784741 16.4202 0.672935ZM2.9729 9.67204C3.12748 10.1071 3.35744 10.5153 3.65559 10.8767C4.24141 11.5867 5.05451 12.0727 5.95737 12.2523C6.35952 12.3323 6.65574 12.6756 6.67604 13.0851C6.69634 13.4946 6.43552 13.8655 6.04324 13.9849C5.71834 14.0837 5.38547 14.1526 5.04881 14.1909C5.27128 14.4777 5.53297 14.7345 5.82796 14.9533C6.49708 15.4494 7.30422 15.7247 8.13707 15.7407C8.51494 15.748 8.84744 15.992 8.96766 16.3504C9.08788 16.7087 8.96986 17.1039 8.67284 17.3376C7.42189 18.3219 5.97535 19.0083 4.44255 19.3587C5.71296 19.7655 7.04532 19.975 8.393 19.9733L8.40338 19.9733C10.1204 19.9912 11.8238 19.6667 13.414 19.0189C15.0042 18.371 16.4494 17.4128 17.6651 16.2002C18.8809 14.9876 19.8428 13.5448 20.4947 11.9563C20.7463 11.3432 20.9498 10.7131 21.1041 10.0717C21.3495 9.05135 21.4703 8.00249 21.4621 6.94816L21.462 6.94116V6.30923C21.462 6.0924 21.5408 5.88296 21.6837 5.71988C21.7663 5.62563 21.9108 5.40797 22.1123 5.05277C22.3039 4.71519 22.5158 4.30991 22.7363 3.88165C22.7496 3.85574 22.763 3.82971 22.7765 3.80356C22.2046 3.92773 21.5565 3.99282 20.8771 3.91939C20.6619 3.89614 20.4625 3.79564 20.3158 3.63653C19.7162 2.98631 18.9177 2.55349 18.0457 2.40595C17.6587 2.34048 17.1909 2.35547 16.7222 2.43576C16.2129 2.52299 15.7697 2.67562 15.4971 2.8213C14.717 3.2381 14.0973 3.90204 13.7351 4.70899C13.373 5.51595 13.289 6.42026 13.4962 7.28012C13.5623 7.55425 13.4952 7.84349 13.3152 8.06053C13.1352 8.27757 12.8633 8.39699 12.5817 8.38274C11.5761 8.33188 10.5811 8.17848 9.61187 7.92658C8.58659 7.66011 7.59012 7.28339 6.64034 6.8012C5.242 6.09127 3.96852 5.16472 2.86581 4.05861C2.81551 4.31569 2.78997 4.57803 2.79014 4.84207L2.79014 4.84436C2.7889 5.501 2.95004 6.14775 3.25922 6.72705C3.5684 7.30634 4.01603 7.80019 4.56225 8.16463C4.89375 8.38581 5.03889 8.79964 4.91816 9.17942C4.79743 9.5592 4.43997 9.81326 4.04161 9.80243C3.68082 9.79261 3.32305 9.74873 2.9729 9.67204Z" fill="black"/>
</svg>
