<svg width="26" height="19" viewBox="0 0 26 19" fill="none" xmlns="http://www.w3.org/2000/svg">
<path fill-rule="evenodd" clip-rule="evenodd" d="M11.2887 5.029C11.0124 4.86325 10.6683 4.8589 10.388 5.01764C10.1076 5.17637 9.93433 5.47364 9.93433 5.79581V12.9498C9.93433 13.272 10.1076 13.5692 10.388 13.728C10.6683 13.8867 11.0124 13.8824 11.2887 13.7166L17.2503 10.1396C17.5197 9.978 17.6845 9.68692 17.6845 9.3728C17.6845 9.05869 17.5197 8.7676 17.2503 8.60599L11.2887 5.029ZM15.0521 9.3728L11.7228 11.3704V7.37523L15.0521 9.3728Z" fill="black"/>
<path fill-rule="evenodd" clip-rule="evenodd" d="M19.2115 0.598779C15.2188 0.28641 11.2078 0.286409 7.21508 0.598779L4.54342 0.807797C2.91879 0.934901 1.58972 2.15251 1.32116 3.75983C0.700238 7.47605 0.700238 11.2696 1.32116 14.9858C1.58972 16.5931 2.91879 17.8107 4.54342 17.9378L7.21508 18.1468C11.2078 18.4592 15.2188 18.4592 19.2115 18.1468L21.8831 17.9378C23.5077 17.8107 24.8368 16.5931 25.1054 14.9858C25.7263 11.2696 25.7263 7.47605 25.1054 3.75983C24.8368 2.15251 23.5077 0.934901 21.8831 0.807797L19.2115 0.598779ZM7.35457 2.38183C11.2544 2.07672 15.1721 2.07672 19.072 2.38183L21.7436 2.59084C22.5492 2.65387 23.2082 3.2576 23.3413 4.05457C23.9297 7.57565 23.9297 11.17 23.3413 14.691C23.2082 15.488 22.5492 16.0917 21.7436 16.1548L19.072 16.3638C15.1721 16.6689 11.2544 16.6689 7.35457 16.3638L4.68292 16.1548C3.87737 16.0917 3.21836 15.488 3.0852 14.691C2.49688 11.17 2.49688 7.57565 3.0852 4.05457C3.21836 3.2576 3.87737 2.65387 4.68292 2.59084L7.35457 2.38183Z" fill="black"/>
</svg>
